<svg xmlns="http://www.w3.org/2000/svg" viewBox="0 0 24 24" width="24" height="24">
  <defs>
    <linearGradient id="grad" x1="0%" y1="0%" x2="100%" y2="100%">
      <stop offset="0%" style="stop-color:#6366f1"/>
      <stop offset="100%" style="stop-color:#8b5cf6"/>
    </linearGradient>
  </defs>
  <path fill="url(#grad)" d="M12 2a9 9 0 0 0-9 9c0 2.39.93 4.56 2.45 6.17L4 22l4.83-1.45A8.96 8.96 0 0 0 12 21a9 9 0 0 0 0-18zm0 16a7 7 0 1 1 0-14 7 7 0 0 1 0 14z"/>
  <path fill="url(#grad)" d="M12 6a5 5 0 0 0-5 5c0 1.3.5 2.5 1.32 3.4l-.82 2.1 2.1-.82A4.96 4.96 0 0 0 12 16a5 5 0 0 0 0-10zm0 8a3 3 0 1 1 0-6 3 3 0 0 1 0 6z"/>
  <circle fill="#fff" cx="12" cy="11" r="1.5"/>
</svg>
